# xmcd CD database file
#
# Track frame offsets:
#	150
#	14927
#	28455
#	41695
#	51485
#	62795
#	73485
#	86367
#	98030
#	113170
#	124420
#	133580
#	143877
#	156702
#	171087
#	188830
#	202402
#	219127
#
# Disc length: 3099 seconds
#
# Revision: 1
# Processed by: cddbd v1.5.1PL0 Copyright (c) Steve Scherf et al.
# Submitted via: CDex 1.51
#
DISCID=260c1912
DTITLE=NAT KING COLE - NAT KING COLE TRIO 1946-1947
DYEAR=1946
DGENRE=Jazz
TTITLE0=I'VE GOT THE WORLD ON A STRING
TTITLE1=ON THE SUNNY SIDE OF THE STREET
TTITLE2=HOW DEEP IS THE OCEAN
TTITLE3=SWINGIN' THE BLUE
TTITLE4=BUT SHE'S MY BUDDY'S CHICK
TTITLE5=I GOT RYTHM
TTITLE6=ONE O'CLOCK JUMP
TTITLE7=AFTER YOU GET WHAT YOU WANT YOU DON'T WANT IT
TTITLE8=SOMEBODY LOVES ME
TTITLE9=THIS WAY OUT
TTITLE10=WHAT CAN I SAY AFTER I SAY I'M SORRY
TTITLE11=HONEYSUCKLE ROSE
TTITLE12=TOO MARVELOUS FOR WORDS
TTITLE13=HOW DOES IT FEEL
TTITLE14=HOW HIGHT THE MOON
TTITLE15=ROUTE 66
TTITLE16=WHAT IS THE THING CALLED LOVE
TTITLE17=CONFESS
EXTD=YEAR: 1946
EXTT0=
EXTT1=
EXTT2=
EXTT3=
EXTT4=
EXTT5=
EXTT6=
EXTT7=
EXTT8=
EXTT9=
EXTT10=
EXTT11=
EXTT12=
EXTT13=
EXTT14=
EXTT15=
EXTT16=
EXTT17=
PLAYORDER=
